<?xml version="1.0" encoding="UTF-8"?>
<svg width="1200pt" height="1200pt" version="1.1" viewBox="0 0 1200 1200" xmlns="http://www.w3.org/2000/svg">
 <path d="m272.73 1123.6h720c36.094 0 65.453-29.359 65.453-65.453v-916.36c0-36.094-29.359-65.453-65.453-65.453h-720c-36.094 0-65.453 29.359-65.453 65.453v130.91h-43.637c-12.051 0-21.816 9.7578-21.816 21.816s9.7695 21.816 21.816 21.816h43.637v109.09h-43.637c-12.051 0-21.816 9.7578-21.816 21.816 0 12.059 9.7695 21.816 21.816 21.816h43.637v109.09h-43.637c-12.051 0-21.816 9.7578-21.816 21.816 0 12.059 9.7695 21.816 21.816 21.816h43.637v109.09h-43.637c-12.051 0-21.816 9.7578-21.816 21.816s9.7695 21.816 21.816 21.816h43.637v109.09h-43.637c-12.051 0-21.816 9.7578-21.816 21.816s9.7695 21.816 21.816 21.816h43.637v130.91c0 36.113 29.359 65.473 65.453 65.473zm741.82-981.82v916.36c0 12.039-9.7891 21.816-21.816 21.816h-589.09v-960h589.09c12.023 0.003906 21.816 9.7852 21.816 21.82zm-763.64 632.73h21.816c12.051 0 21.816-9.7578 21.816-21.816 0-12.059-9.7695-21.816-21.816-21.816h-21.816v-109.09h21.816c12.051 0 21.816-9.7578 21.816-21.816 0-12.059-9.7695-21.816-21.816-21.816h-21.816v-109.09h21.816c12.051 0 21.816-9.7578 21.816-21.816s-9.7695-21.816-21.816-21.816h-21.816v-109.09h21.816c12.051 0 21.816-9.7578 21.816-21.816s-9.7695-21.816-21.816-21.816h-21.816v-130.91c0-12.039 9.7891-21.816 21.816-21.816h87.273v960h-87.273c-12.027 0-21.816-9.7812-21.816-21.816v-130.91h21.816c12.051 0 21.816-9.7578 21.816-21.816 0-12.059-9.7695-21.816-21.816-21.816h-21.816z"/>
 <path d="m480 861.82h458.18c18.047 0 32.727-14.68 32.727-32.727v-55.844c0-95.52-77.727-173.25-173.28-173.25-5.957 0-11.656 2.4297-15.766 6.7344-19.176 20.051-45.012 31.109-72.754 31.109h-0.03125c-27.754 0-53.609-11.059-72.805-31.109-4.125-4.3047-9.8125-6.7344-15.77-6.7344-95.52 0-173.23 77.727-173.23 173.25v55.844c0 18.047 14.68 32.727 32.727 32.727zm10.91-88.57c0-68.586 53.555-124.9 121.05-129.33 26.602 24.289 60.723 37.562 97.125 37.562 36.414 0 70.527-13.273 97.129-37.562 67.5 4.4102 121.05 60.746 121.05 129.33v44.938h-436.36z"/>
 <path d="m709.09 600c72.188 0 130.91-58.723 130.91-130.91s-58.723-130.91-130.91-130.91-130.91 58.723-130.91 130.91c0.003906 72.188 58.723 130.91 130.91 130.91zm0-218.18c48.121 0 87.273 39.141 87.273 87.273 0 48.133-39.152 87.273-87.273 87.273s-87.273-39.141-87.273-87.273c0-48.133 39.152-87.273 87.273-87.273z"/>
</svg>
